<?xml version="1.0" standalone="no"?>
<!DOCTYPE svg PUBLIC "-//W3C//DTD SVG 20010904//EN"
 "http://www.w3.org/TR/2001/REC-SVG-20010904/DTD/svg10.dtd">
<svg version="1.0" xmlns="http://www.w3.org/2000/svg"
 width="700.000000pt" height="700.000000pt" viewBox="0 0 700.000000 700.000000"
 preserveAspectRatio="xMidYMid meet">
<metadata>
Created by potrace 1.11, written by Peter Selinger 2001-2013
</metadata>
<g transform="translate(0.000000,700.000000) scale(0.100000,-0.100000)"
fill="#000000" stroke="none">
<path d="M3265 6310 c-38 -4 -92 -10 -120 -13 -27 -3 -97 -15 -155 -26 -660
-129 -1258 -513 -1643 -1055 -39 -56 -77 -111 -84 -122 -82 -131 -177 -313
-208 -399 -10 -27 -22 -54 -26 -60 -3 -5 -25 -66 -48 -135 -69 -212 -106 -396
-126 -625 -6 -65 -6 -345 0 -410 14 -163 19 -198 71 -444 3 -14 7 -28 9 -31 2
-4 7 -21 10 -39 7 -39 86 -260 124 -346 87 -200 203 -393 351 -586 72 -94 259
-286 365 -375 73 -62 239 -185 280 -208 17 -9 59 -35 95 -57 36 -22 87 -51
113 -64 l48 -23 -58 -33 c-79 -44 -248 -156 -262 -172 -15 -19 210 -167 383
-252 366 -179 708 -259 1111 -260 237 0 312 9 605 70 137 29 371 117 540 202
135 69 372 222 364 235 -11 17 -212 148 -287 187 -15 8 -27 17 -27 20 0 4 17
15 38 26 56 30 206 118 212 124 3 3 39 29 80 56 41 28 86 59 99 70 205 168
325 288 484 484 10 12 46 64 81 114 248 360 406 783 451 1207 4 36 9 76 11 90
5 39 4 359 -1 420 -10 111 -25 210 -46 316 -5 28 -12 61 -14 75 -9 48 -63 226
-93 304 -17 44 -36 96 -44 115 -7 19 -41 91 -75 160 -72 145 -166 300 -241
395 -4 6 -30 39 -57 75 -188 243 -466 482 -760 652 -74 43 -288 148 -301 148
-3 0 -20 7 -37 15 -106 49 -408 131 -577 155 -41 6 -88 13 -105 16 -52 9 -457
12 -530 4z m375 -784 c108 -8 150 -13 219 -27 472 -96 856 -344 1161 -748 53
-71 153 -250 195 -351 145 -341 183 -694 118 -1075 -8 -49 -17 -93 -20 -98 -2
-4 -7 -20 -9 -35 -11 -61 -80 -243 -130 -345 -206 -414 -524 -713 -964 -905
-113 -49 -328 -106 -485 -127 -77 -11 -320 -13 -412 -4 -280 28 -591 137 -825
290 -91 60 -106 71 -197 147 -46 39 -175 166 -201 198 -8 11 -34 42 -56 69
-96 116 -207 309 -273 477 -30 77 -76 228 -85 282 -3 16 -10 52 -15 80 -17 85
-24 185 -24 316 -1 141 11 267 35 370 5 25 11 52 13 60 1 8 9 35 16 60 7 25
14 51 15 58 5 29 79 211 112 277 184 369 479 663 854 848 102 51 314 129 384
141 15 3 50 10 78 15 84 17 116 21 221 27 55 4 101 7 103 9 1 1 21 0 45 -1 23
-2 80 -5 127 -8z"/>
<path d="M4485 4724 c-273 -54 -492 -127 -691 -229 -45 -23 -90 -40 -100 -39
-10 2 -41 8 -68 13 -68 13 -250 6 -316 -12 -254 -70 -437 -220 -544 -448 -57
-120 -71 -186 -70 -339 1 -74 4 -153 9 -176 6 -36 2 -50 -38 -130 -82 -164
-145 -341 -191 -534 -32 -132 -45 -219 -35 -225 12 -8 204 32 335 69 146 41
274 90 410 157 108 53 111 53 209 32 11 -2 58 -4 105 -5 270 -2 524 134 677
366 46 68 104 205 118 276 13 67 14 255 2 315 l-12 60 47 95 c104 211 196 493
223 685 3 22 8 47 11 57 7 25 -5 27 -81 12z"/>
</g>
</svg>
